#!OML:ASF E:\motion texture\Top Level 1\Subject 1\Session 1\male.ASF
:FULLY-SPECIFIED
:DEGREES
193
root 5.34569 17.499 5.68247 759.669 -87.5438 -752.567
lowerback -0.835676 -3.22494 -0.839339
upperback -1.40232 -4.34162 4.18491
thorax -0.585399 -2.17912 4.75568
lowerneck -10.1325 -3.82633 -6.63902
upperneck 23.9438 -5.91539 5.11426
head 9.56221 -3.02418 2.18692
rclavicle 2.00276e-014 3.97569e-015
rhumerus -35.3436 -12.2369 -75.0444
rradius 72.7322
rwrist -21.2782
rhand -16.0805 -42.2348
rfingers 7.12502
rthumb 10.1225 -71.9713
lclavicle 2.00276e-014 3.97569e-015
lhumerus -32.5203 10.1825 88.3663
lradius 73.1217
lwrist 27.3681
lhand -14.1546 40.5385
lfingers 7.12502
lthumb 11.98 70.1757
rfemur -35.1917 2.1802 18.8493
rtibia 22.9672
rfoot 2.31338 -13.0429
rtoes 5.94388
lfemur 6.41449 -5.8336 -19.7232
ltibia 21.1527
lfoot -15.4894 -3.72994
ltoes -16.7122
194
root 5.16586 17.5203 5.65736 764.727 -87.3163 -757.676
lowerback -0.814376 -3.18213 -0.535561
upperback -1.43336 -4.29058 4.39149
thorax -0.640109 -2.15755 4.80327
lowerneck -10.1672 -3.89825 -6.67953
upperneck 23.8564 -6.00851 5.16211
head 9.54735 -3.063 2.1985
rclavicle 2.84262e-014 3.18055e-015
rhumerus -35.2631 -12.1279 -75.0241
rradius 72.8456
rwrist -21.0912
rhand -16.1661 -42.4945
rfingers 7.12502
rthumb 10.04 -72.235
lclavicle 2.84262e-014 3.18055e-015
lhumerus -32.3583 9.69055 88.5305
lradius 73.051
lwrist 26.0947
lhand -14.2161 39.9646
lfingers 7.12502
lthumb 11.9208 69.6052
rfemur -34.7485 2.54496 19.3109
rtibia 23.1947
rfoot 2.93577 -12.83
rtoes 7.35792
lfemur 6.1607 -5.92865 -19.2042
ltibia 22.5875
lfoot -14.6118 -4.18509
ltoes -18.1405
195
root 4.98449 17.5425 5.63143 768.08 -87.1473 -761.102
lowerback -0.789374 -3.13365 -0.32286
upperback -1.46606 -4.23053 4.56656
thorax -0.695104 -2.13051 4.86972
lowerneck -10.176 -3.96753 -6.72481
upperneck 23.7684 -6.10523 5.23221
head 9.52845 -3.10254 2.21859
rclavicle -1.78906e-014 -3.18055e-015
rhumerus -35.1862 -12.0041 -75.0243
rradius 72.9738
rwrist -20.9249
rhand -16.2596 -42.8069
rfingers 7.12502
rthumb 9.94976 -72.5518
lclavicle -1.78906e-014 -3.18055e-015
lhumerus -32.223 9.13385 88.6853
lradius 72.9563
lwrist 24.7375
lhand -14.1618 39.1627
lfingers 7.12502
lthumb 11.9731 68.8003
rfemur -34.281 2.7849 19.7391
rtibia 23.5365
rfoot 3.27819 -12.6322
rtoes 9.09509
lfemur 5.80227 -5.94249 -18.7512
ltibia 24.1998
lfoot -13.5593 -4.72144
ltoes -19.5234
196
root 4.80222 17.5648 5.6045 770.261 -87.0268 -763.376
lowerback -0.774315 -3.08488 -0.198229
upperback -1.48509 -4.16972 4.72177
thorax -0.725761 -2.10259 4.9639
lowerneck -10.1906 -4.03481 -6.77574
upperneck 23.6908 -6.20207 5.31614
head 9.51511 -3.14129 2.24429
rclavicle -1.14301e-014 4.6118e-014
rhumerus -35.0752 -11.8559 -75.0483
rradius 73.1192
rwrist -20.798
rhand -16.3238 -43.1183
rfingers 7.12502
rthumb 9.88774 -72.8661
lclavicle -1.14301e-014 4.6118e-014
lhumerus -32.0838 8.51683 88.8426
lradius 72.8453
lwrist 23.3041
lhand -14.0635 38.2392
lfingers 7.12502
lthumb 12.0679 67.8713
rfemur -33.7728 2.92039 20.1346
rtibia 23.9308
rfoot 3.39877 -12.4367
rtoes 10.8982
lfemur 5.32721 -5.86769 -18.3358
ltibia 25.986
lfoot -12.2745 -5.32861
ltoes -20.8036
197
root 4.61984 17.5869 5.57656 771.622 -86.9262 -764.851
lowerback -0.759697 -3.03903 -0.123761
upperback -1.49986 -4.1122 4.85791
thorax -0.749506 -2.07577 5.06628
lowerneck -10.1989 -4.10021 -6.82203
upperneck 23.6294 -6.30281 5.41209
head 9.50692 -3.18085 2.273
rclavicle 1.31198e-014 -4.37326e-014
rhumerus -34.9442 -11.6855 -75.1024
rradius 73.2907
rwrist -20.7145
rhand -16.3793 -43.4566
rfingers 7.12502
rthumb 9.83419 -73.2069
lclavicle 1.31198e-014 -4.37326e-014
lhumerus -31.9467 7.82283 88.9928
lradius 72.718
lwrist 21.8149
lhand -13.9894 37.2805
lfingers 7.12502
lthumb 12.1394 66.9083
rfemur -33.2043 2.98154 20.5075
rtibia 24.301
rfoot 3.34867 -12.2286
rtoes 12.5279
lfemur 4.73041 -5.70862 -17.9193
ltibia 27.9246
lfoot -10.7078 -5.97961
ltoes -21.8763
198
root 4.43756 17.6084 5.54752 772.62 -86.8085 -765.983
lowerback -0.746318 -2.99995 -0.0600778
upperback -1.50317 -4.06403 4.991
thorax -0.759532 -2.05383 5.17101
lowerneck -10.2179 -4.16504 -6.87207
upperneck 23.5814 -6.40592 5.52151
head 9.50635 -3.22044 2.30652
rclavicle -1.23246e-014 3.33958e-014
rhumerus -34.7787 -11.474 -75.1879
rradius 73.4971
rwrist -20.6727
rhand -16.436 -43.8249
rfingers 7.12502
rthumb 9.77952 -73.5778
lclavicle -1.23246e-014 3.33958e-014
lhumerus -31.7942 7.05855 89.1397
lradius 72.5784
lwrist 20.305
lhand -13.9312 36.2745
lfingers 7.12502
lthumb 12.1954 65.899
rfemur -32.557 3.00576 20.8917
rtibia 24.5956
rfoot 3.15938 -11.9932
rtoes 13.9113
lfemur 4.02591 -5.47395 -17.4527
ltibia 29.9721
lfoot -8.80911 -6.62458
ltoes -22.6187
199
root 4.25655 17.6288 5.51758 773.465 -86.6393 -766.969
lowerback -0.732917 -2.96793 0.0330203
upperback -1.51268 -4.02538 5.12539
thorax -0.777118 -2.03691 5.26078
lowerneck -10.2193 -4.22765 -6.9121
upperneck 23.5421 -6.51313 5.64007
head 9.50593 -3.26097 2.34133
rclavicle -5.66536e-015 -7.95139e-014
rhumerus -34.6056 -11.2262 -75.301
rradius 73.7427
rwrist -20.657
rhand -16.5164 -44.2123
rfingers 7.12502
rthumb 9.70196 -73.9688
lclavicle -5.66536e-015 -7.95139e-014
lhumerus -31.6633 6.19898 89.272
lradius 72.4534
lwrist 18.8242
lhand -14.1167 35.6468
lfingers 7.12502
lthumb 12.0166 65.2818
rfemur -31.8501 3.00649 21.3158
rtibia 24.8031
rfoot 2.8622 -11.7412
rtoes 15.0209
lfemur 3.21074 -5.18989 -16.9047
ltibia 32.0759
lfoot -6.53494 -7.19162
ltoes -22.9328
200
root 4.07642 17.648 5.48644 774.425 -86.3853 -768.075
lowerback -0.726173 -2.94606 0.191625
upperback -1.5206 -4.00144 5.27355
thorax -0.791486 -2.02841 5.3275
lowerneck -10.2263 -4.28901 -6.95029
upperneck 23.5118 -6.62278 5.77145
head 9.51045 -3.30122 2.37985
rclavicle -4.19436e-014 -1.19271e-014
rhumerus -34.4063 -10.9416 -75.4413
rradius 74.0267
rwrist -20.647
rhand -16.6445 -44.6676
rfingers 7.12502
rthumb 9.57839 -74.4298
lclavicle -4.19436e-014 -1.19271e-014
lhumerus -31.5169 5.25584 89.3929
lradius 72.3274
lwrist 17.4194
lhand -14.2942 35.1055
lfingers 7.12502
lthumb 11.8454 64.7505
rfemur -31.0853 2.99853 21.8249
rtibia 24.9301
rfoot 2.47263 -11.524
rtoes 15.8103
lfemur 2.31059 -4.88515 -16.2426
ltibia 34.1845
lfoot -3.90546 -7.63922
ltoes -22.7925
201
root 3.8974 17.6658 5.45451 775.479 -86.0335 -769.27
lowerback -0.730647 -2.9324 0.430538
upperback -1.53706 -3.9897 5.43809
thorax -0.811503 -2.02715 5.36571
lowerneck -10.2169 -4.34636 -6.97645
upperneck 23.4839 -6.73278 5.90889
head 9.51267 -3.34067 2.41872
rclavicle -9.64106e-015 -2.06736e-014
rhumerus -34.1957 -10.6308 -75.5971
rradius 74.347
rwrist -20.625
rhand -16.8642 -45.2048
rfingers 7.12502
rthumb 9.3664 -74.9767
lclavicle -9.64106e-015 -2.06736e-014
lhumerus -31.3682 4.2252 89.5032
lradius 72.2114
lwrist 16.1511
lhand -14.4274 34.6749
lfingers 7.12502
lthumb 11.717 64.3272
rfemur -30.2781 2.98877 22.4303
rtibia 24.9878
rfoot 1.98821 -11.4005
rtoes 16.2766
lfemur 1.33378 -4.59277 -15.4729
ltibia 36.2694
lfoot -1.01541 -7.96708
ltoes -22.2542
202
root 3.71957 17.6823 5.42171 776.717 -85.5794 -770.638
lowerback -0.767759 -2.9248 0.751298
upperback -1.5483 -3.98927 5.62766
thorax -0.810536 -2.03334 5.38185
lowerneck -10.1953 -4.39623 -7.00914
upperneck 23.4432 -6.83733 6.07306
head 9.50906 -3.37567 2.46884
rclavicle -2.65874e-014 9.54166e-015
rhumerus -33.9404 -10.3088 -75.7616
rradius 74.693
rwrist -20.5613
rhand -17.1355 -45.7602
rfingers 7.12502
rthumb 9.10462 -75.5437
lclavicle -2.65874e-014 9.54166e-015
lhumerus -31.1945 3.11808 89.6118
lradius 72.1214
lwrist 15.0634
lhand -14.4952 34.3558
lfingers 7.12502
lthumb 11.6516 64.0118
rfemur -29.4511 2.9867 23.1474
rtibia 25.0078
rfoot 1.41822 -11.3859
rtoes 16.4724
lfemur 0.296775 -4.32729 -14.5949
ltibia 38.3168
lfoot 1.98295 -8.24592
ltoes -21.3371
203
root 3.54327 17.6976 5.38846 778.055 -85.0379 -772.103
lowerback -0.823625 -2.91702 1.14922
upperback -1.56269 -3.99116 5.83246
thorax -0.806211 -2.04203 5.36967
lowerneck -10.1486 -4.44175 -7.03929
upperneck 23.3982 -6.94518 6.26388
head 9.50047 -3.41026 2.52787
rclavicle 3.37437e-014 -2.06736e-014
rhumerus -33.664 -9.98729 -75.9282
rradius 75.0729
rwrist -20.4489
rhand -17.4201 -46.3324
rfingers 7.12502
rthumb 8.82992 -76.1277
lclavicle 3.37437e-014 -2.06736e-014
lhumerus -31.0073 1.94087 89.7124
lradius 72.0581
lwrist 14.1707
lhand -14.4493 34.0559
lfingers 7.12502
lthumb 11.6959 63.7094
rfemur -28.6213 2.9798 23.9651
rtibia 25.0187
rfoot 0.785122 -11.4392
rtoes 16.504
lfemur -0.781998 -4.0945 -13.6358
ltibia 40.3344
lfoot 4.88364 -8.55307
ltoes -19.9787
204
root 3.36883 17.7115 5.35512 779.502 -84.4426 -773.68
lowerback -0.906666 -2.90856 1.59832
upperback -1.57008 -3.99601 6.05044
thorax -0.781693 -2.05346 5.34085
lowerneck -10.0606 -4.47592 -7.07989
upperneck 23.3382 -7.04345 6.47951
head 9.47952 -3.44021 2.59923
rclavicle 1.0635e-014 3.18055e-015
rhumerus -33.3546 -9.64682 -76.0972
rradius 75.4919
rwrist -20.2932
rhand -17.6617 -46.8582
rfingers 7.12502
rthumb 8.59686 -76.6631
lclavicle 1.0635e-014 3.18055e-015
lhumerus -30.8135 0.735264 89.8021
lradius 72.042
lwrist 13.4707
lhand -14.294 33.7574
lfingers 7.12502
lthumb 11.8457 63.4024
rfemur -27.793 2.97354 24.8577
rtibia 25.0284
rfoot 0.12313 -11.5104
rtoes 16.4834
lfemur -1.88773 -3.8794 -12.6317
ltibia 42.342
lfoot 7.46196 -8.92741
ltoes -18.2427
205
root 3.19664 17.7245 5.32194 780.794 -83.8208 -775.119
lowerback -0.973603 -2.89027 2.06726
upperback -1.57044 -3.98876 6.2645
thorax -0.761525 -2.05911 5.298
lowerneck -9.97534 -4.51407 -7.09656
upperneck 23.2865 -7.15265 6.69377
head 9.46224 -3.47364 2.66473
rclavicle -1.98288e-014 5.725e-014
rhumerus -33.0208 -9.31865 -76.262
rradius 75.9591
rwrist -20.0947
rhand -17.814 -47.3099
rfingers 7.12502
rthumb 8.44984 -77.1209
lclavicle -1.98288e-014 5.725e-014
lhumerus -30.5992 -0.508463 89.8817
lradius 72.069
lwrist 12.9585
lhand -14.0383 33.3997
lfingers 7.12502
lthumb 12.0922 63.0303
rfemur -26.9425 2.95662 25.7803
rtibia 25.0125
rfoot -0.535095 -11.5877
rtoes 16.4664
lfemur -3.00335 -3.68643 -11.6269
ltibia 44.352
lfoot 9.5374 -9.32806
ltoes -16.2923
206
root 3.02664 17.7368 5.28915 781.935 -83.2101 -776.443
lowerback -0.999846 -2.86441 2.52312
upperback -1.56126 -3.97012 6.46772
thorax -0.754963 -2.0588 5.25381
lowerneck -9.91418 -4.55744 -7.09198
upperneck 23.2672 -7.27095 6.89059
head 9.46046 -3.51108 2.7191
rclavicle 2.13694e-015 1.43125e-014
rhumerus -32.6749 -8.96995 -76.4256
rradius 76.4949
rwrist -19.887
rhand -17.7929 -47.6337
rfingers 7.12502
rthumb 8.47022 -77.4439
lclavicle 2.13694e-015 1.43125e-014
lhumerus -30.3792 -1.74718 89.946
lradius 72.1469
lwrist 12.5993
lhand -13.7086 32.9711
lfingers 7.12502
lthumb 12.4101 62.5827
rfemur -26.0529 2.92549 26.6967
rtibia 24.9718
rfoot -1.18408 -11.6497
rtoes 16.4486
lfemur -4.10182 -3.49928 -10.66
ltibia 46.362
lfoot 11.0011 -9.64795
ltoes -14.464
207
root 2.85896 17.7487 5.25704 782.902 -82.6469 -777.633
lowerback -0.98655 -2.83211 2.94093
upperback -1.54113 -3.93999 6.64433
thorax -0.759239 -2.0519 5.20547
lowerneck -9.85692 -4.60229 -7.0602
upperneck 23.2698 -7.39323 7.06313
head 9.46571 -3.55082 2.75996
rclavicle -1.16786e-014 -1.27222e-014
rhumerus -32.3312 -8.57863 -76.6034
rradius 77.1111
rwrist -19.7144
rhand -17.7056 -47.921
rfingers 7.12502
rthumb 8.55446 -77.7277
lclavicle -1.16786e-014 -1.27222e-014
lhumerus -30.167 -2.95427 89.979
lradius 72.2775
lwrist 12.3392
lhand -13.3201 32.509
lfingers 7.12502
lthumb 12.7846 62.0976
rfemur -25.1114 2.89613 27.5625
rtibia 24.8849
rfoot -1.80643 -11.6965
rtoes 16.4173
lfemur -5.17866 -3.30372 -9.77085
ltibia 48.3617
lfoot 11.8075 -9.78819
ltoes -13.2146
